<svg xmlns:dc="http://purl.org/dc/elements/1.1/" xmlns:cc="http://creativecommons.org/ns#" xmlns:rdf="http://www.w3.org/1999/02/22-rdf-syntax-ns#" xmlns:svg="http://www.w3.org/2000/svg" xmlns="http://www.w3.org/2000/svg" xmlns:xlink="http://www.w3.org/1999/xlink" id="svg60589" viewBox="0 0 1024 768" height="768px" width="1024px" version="1.1">
  <metadata id="metadata60595">
    <rdf:rdf>
      <cc:work rdf:about="">
        <dc:format>image/svg+xml</dc:format>
        <dc:type rdf:resource="http://purl.org/dc/dcmitype/StillImage"></dc:type>
      </cc:work>
    </rdf:rdf>
  </metadata>
  <defs id="defs60593"></defs>
  <linearGradient spreadMethod="pad" y2="30%" x2="-10%" y1="120%" x1="30%" id="3d_gradient2-logo-fe68f473-8ead-4c49-a492-008d13a4e461">
    <stop id="stop60570" stop-opacity="1" stop-color="#ffffff" offset="0%"></stop>
    <stop id="stop60572" stop-opacity="1" stop-color="#000000" offset="100%"></stop>
  </linearGradient>
  <linearGradient gradientTransform="rotate(-30)" spreadMethod="pad" y2="30%" x2="-10%" y1="120%" x1="30%" id="3d_gradient3-logo-fe68f473-8ead-4c49-a492-008d13a4e461">
    <stop id="stop60575" stop-opacity="1" stop-color="#ffffff" offset="0%"></stop>
    <stop id="stop60577" stop-opacity="1" stop-color="#cccccc" offset="50%"></stop>
    <stop id="stop60579" stop-opacity="1" stop-color="#000000" offset="100%"></stop>
  </linearGradient>
  <g id="logo-group">
    <image xlink:href="" id="container" x="272" y="144" width="480" height="480" style="display: none;" transform="translate(0 0)"></image>
    <g id="logo-center" transform="translate(-1.1368683772161603e-13 0)">
      <image xlink:href="" id="icon_container" style="display: none;" x="0" y="0"></image>
      <g id="slogan" style="font-style:normal;font-weight:400;font-size:32px;line-height:1;font-family:Montserrat;font-variant-ligatures:none;text-align:center;text-anchor:middle" transform="translate(0 0)"></g>
      <g id="title" style="font-style:normal;font-weight:300;font-size:72px;line-height:1;font-family:'Montserrat Light Alt1';font-variant-ligatures:none;text-align:center;text-anchor:middle" transform="translate(0 0)">
        <path id="path60598" style="font-style:normal;font-weight:300;font-size:72px;line-height:1;font-family:'Montserrat Light Alt1';font-variant-ligatures:none;text-align:center;text-anchor:middle" d="M 411.88513,-47.088 V 0 h 3.67199 v -47.088 h 18.144 V -50.4 h -39.96 v 3.312 z" stroke-width="0" stroke-linejoin="miter" stroke-miterlimit="2" fill="#7fb4d7" stroke="#7fb4d7" transform="translate(0 320.16231999999997) translate(315.0233037500001 28.327999999999996) scale(1.49) translate(-393.74112 50.4)"></path>
        <path id="path60600" style="font-style:normal;font-weight:300;font-size:72px;line-height:1;font-family:'Montserrat Light Alt1';font-variant-ligatures:none;text-align:center;text-anchor:middle" d="m 449.45675,-35.64 c -2.448,1.44 -4.248,3.528 -5.4,6.264 v -8.208 h -3.456 V 0 h 3.6 v -19.584 c 0,-4.608 1.152,-8.28 3.528,-10.872 2.304,-2.592 5.616,-3.96 9.792,-3.96 l 0.864,0.072 v -3.528 c -3.528,0 -6.48,0.792 -8.928,2.232 z" stroke-width="0" stroke-linejoin="miter" stroke-miterlimit="2" fill="#74a8c9" stroke="#74a8c9" transform="translate(0 320.16231999999997) translate(392.29415245000007 46.99472) scale(1.49) translate(-440.60075 37.872)"></path>
        <path id="path60602" style="font-style:normal;font-weight:300;font-size:72px;line-height:1;font-family:'Montserrat Light Alt1';font-variant-ligatures:none;text-align:center;text-anchor:middle" d="m 491.70387,-34.272 c -2.52,-2.376 -6.12,-3.6 -10.728,-3.6 -2.88,0 -5.688,0.504 -8.28,1.44 -2.66399,0.936 -4.896,2.232 -6.768,3.888 l 1.8,2.592 c 1.584,-1.44 3.456,-2.592 5.76,-3.456 2.304,-0.864 4.68,-1.296 7.20001,-1.296 3.59999,0 6.40799,0.936 8.27999,2.736 1.872,1.872 2.88,4.536 2.88,7.992 v 3.024 h -12.888 c -4.896,0 -8.49599,1.008 -10.728,2.952 -2.232,1.944 -3.312,4.464 -3.312,7.56 0,3.24 1.152,5.832 3.60001,7.776 2.44799,2.016 5.75999,2.952 9.93599,2.952 3.168,0 5.976,-0.576 8.28001,-1.8 2.30399,-1.224 4.03199,-2.952 5.25599,-5.184 V 0 h 3.456 v -23.832 c 0,-4.608 -1.29599,-8.064 -3.744,-10.44 z m -4.824,29.448 c -2.16,1.44 -4.82399,2.16 -7.92,2.16 -3.312,0 -5.90399,-0.648 -7.704,-2.088 -1.872,-1.44 -2.73599,-3.384 -2.73599,-5.832 0,-2.304 0.79199,-4.176 2.44799,-5.544 1.656,-1.296 4.32,-2.016 8.06401,-2.016 h 12.81599 v 7.056 c -1.152,2.736 -2.808,4.824 -4.968,6.264 z" stroke-width="0" stroke-linejoin="miter" stroke-miterlimit="2" fill="#699dba" stroke="#699dba" transform="translate(0 320.16231999999997) translate(435.97964125000004 46.99472) scale(1.49) translate(-464.91987 37.872)"></path>
        <path id="path60604" style="font-style:normal;font-weight:300;font-size:72px;line-height:1;font-family:'Montserrat Light Alt1';font-variant-ligatures:none;text-align:center;text-anchor:middle" d="m 539.81562,-37.584 h -3.67199 l -15.12,33.624 -14.97601,-33.624 h -3.816 L 519.15162,0 h 3.672 z" stroke-width="0" stroke-linejoin="miter" stroke-miterlimit="2" fill="#5e91ac" stroke="#5e91ac" transform="translate(0 320.16231999999997) translate(499.02414875000005 47.42384) scale(1.49) translate(-502.23162 37.584)"></path>
        <path id="path60606" style="font-style:normal;font-weight:300;font-size:72px;line-height:1;font-family:'Montserrat Light Alt1';font-variant-ligatures:none;text-align:center;text-anchor:middle" d="M 547.61637,-53.424 V 0 h 3.6 v -53.424 z" stroke-width="0" stroke-linejoin="miter" stroke-miterlimit="2" fill="#4e8098" stroke="#4e8098" transform="translate(0 320.16231999999997) translate(574.0974262499999 23.82224) scale(1.49) translate(-547.61637 53.424)"></path>
        <path id="path60608" style="font-style:normal;font-weight:300;font-size:72px;line-height:1;font-family:'Montserrat Light Alt1';font-variant-ligatures:none;text-align:center;text-anchor:middle" d="m 588.63612,-4.248 c -2.08799,0.864 -4.392,1.296 -6.768,1.296 -3.88799,0 -7.12799,-1.008 -9.86399,-3.024 -2.736,-2.016 -4.60801,-4.752 -5.47201,-8.208 l 31.75201,-6.192 c -0.21601,-3.312 -1.00801,-6.264 -2.592,-8.928 -1.58401,-2.664 -3.67201,-4.752 -6.264,-6.264 -2.592,-1.512 -5.544,-2.304 -8.784,-2.304 -3.52801,0 -6.69601,0.864 -9.432,2.448 -2.808,1.656 -4.968,3.888 -6.55201,6.768 -1.58399,2.88 -2.30399,6.192 -2.30399,9.864 0,3.744 0.792,6.984 2.44799,9.864 1.656,2.88 3.96001,5.184 6.91201,6.768 2.952,1.656 6.264,2.448 10.07999,2.448 2.88,0 5.544,-0.504 8.06401,-1.512 2.376,-1.008 4.46399,-2.52 6.12,-4.608 l -2.08801,-2.376 c -1.43999,1.8 -3.168,3.096 -5.256,3.96 z m -15.624,-28.44 c 2.23201,-1.296 4.75201,-2.016 7.63201,-2.016 2.44799,0 4.75199,0.576 6.768,1.656 2.016,1.08 3.59999,2.592 4.896,4.392 1.22399,1.872 2.01599,3.96 2.37599,6.192 l -28.65599,5.616 c -0.144,-0.936 -0.144,-1.656 -0.144,-2.232 0,-2.952 0.57599,-5.688 1.87199,-8.064 1.22401,-2.376 2.952,-4.248 5.256,-5.544 z" stroke-width="0" stroke-linejoin="miter" stroke-miterlimit="2" fill="#3b6c7f" stroke="#3b6c7f" transform="translate(0 320.16231999999997) translate(603.50966865 46.99472) scale(1.49) translate(-562.35613 37.872)"></path>
        <path id="path60610" style="font-style:normal;font-weight:300;font-size:72px;line-height:1;font-family:'Montserrat Light Alt1';font-variant-ligatures:none;text-align:center;text-anchor:middle" d="m 628.13937,-2.376 -1.51199,-2.52 c -1.58401,1.44 -3.52801,2.088 -5.832,2.088 -2.30401,0 -4.10401,-0.576 -5.25601,-1.872 -1.15199,-1.296 -1.728,-3.168 -1.728,-5.616 v -24.192 h 11.952 v -3.096 h -11.952 v -8.208 h -3.6 v 8.208 h -6.91199 v 3.096 h 6.91199 v 24.552 c 0,3.24 0.864,5.76 2.664,7.56 1.72801,1.8 4.248,2.664 7.56001,2.664 1.43999,0 2.88,-0.216 4.24799,-0.648 1.368,-0.432 2.52001,-1.152 3.456,-2.016 z" stroke-width="0" stroke-linejoin="miter" stroke-miterlimit="2" fill="#11414b" stroke="#11414b" transform="translate(0 320.16231999999997) translate(671.9651111500001 35.19392) scale(1.49) translate(-603.29938 45.792)"></path>
      </g>
      <image xlink:href="" id="icon" style="display: none;" x="0" y="0"></image>
    </g>
  </g>
</svg>